<svg xmlns="http://www.w3.org/2000/svg" xmlns:xlink="http://www.w3.org/1999/xlink" width="108" height="108" viewBox="0 0 108 108"><defs><filter id="a" x="0" y="0" width="108" height="108" filterUnits="userSpaceOnUse"><feOffset dy="3" input="SourceAlpha"/><feGaussianBlur stdDeviation="3" result="b"/><feFlood flood-opacity="0.161"/><feComposite operator="in" in2="b"/><feComposite in="SourceGraphic"/></filter></defs><g transform="translate(-153 -474)"><g transform="matrix(1, 0, 0, 1, 153, 474)" filter="url(#a)"><g transform="translate(9 6)" fill="#fff" stroke="#7cbfd8" stroke-width="1"><circle cx="45" cy="45" r="45" stroke="none"/><circle cx="45" cy="45" r="44.5" fill="none"/></g></g><g transform="translate(167 485)"><path d="M235.194,36.884c.664-.018,1.366-.03,2.119-.03a106.711,106.711,0,0,1,38.943,7.9,39.595,39.595,0,0,0-22.627-25.067A110.777,110.777,0,0,0,235.194,36.884Z" transform="translate(-197.938 -16.651)" fill="#7cbfd8"/><path d="M112.236,23.291A111.646,111.646,0,0,1,133.674,1.047,39.728,39.728,0,0,0,124.646,0,39.32,39.32,0,0,0,100.66,8.118a110.55,110.55,0,0,0,5.67,24.547A87.578,87.578,0,0,1,112.236,23.291Z" transform="translate(-84.8 0)" fill="#7cbfd8"/><path d="M19.26,110.512a111.75,111.75,0,0,1-8.542-29.678A39.363,39.363,0,0,0,0,107.883a40.09,40.09,0,0,0,.333,5.063,110.845,110.845,0,0,0,24.1,7.372A87.469,87.469,0,0,1,19.26,110.512Z" transform="translate(0 -68.056)" fill="#7cbfd8"/><path d="M51.956,337.852c-.664.018-1.368.03-2.12.03a106.689,106.689,0,0,1-38.941-7.9,39.595,39.595,0,0,0,22.627,25.067A110.855,110.855,0,0,0,51.956,337.852Z" transform="translate(-9.212 -278.085)" fill="#7cbfd8"/><path d="M218.978,309.835a111.637,111.637,0,0,1-21.438,22.244,39.486,39.486,0,0,0,33.015-7.072,110.834,110.834,0,0,0-5.67-24.547A87.56,87.56,0,0,1,218.978,309.835Z" transform="translate(-166.415 -253.125)" fill="#7cbfd8"/><path d="M377.884,182.838a110.932,110.932,0,0,0-24.1-7.373,87.758,87.758,0,0,1,5.171,9.807,111.738,111.738,0,0,1,8.542,29.68,39.371,39.371,0,0,0,10.718-27.05A40.131,40.131,0,0,0,377.884,182.838Z" transform="translate(-298.216 -147.728)" fill="#7cbfd8"/></g></g></svg>