<?xml version="1.0" standalone="no"?>
<!DOCTYPE svg PUBLIC "-//W3C//DTD SVG 20010904//EN"
 "http://www.w3.org/TR/2001/REC-SVG-20010904/DTD/svg10.dtd">
<svg version="1.0" xmlns="http://www.w3.org/2000/svg"
 width="512.000000pt" height="512.000000pt" viewBox="0 0 512.000000 512.000000"
 preserveAspectRatio="xMidYMid meet">
<metadata>
Created by potrace 1.11, written by Peter Selinger 2001-2013
</metadata>
<g transform="translate(0.000000,512.000000) scale(0.100000,-0.100000)"
fill="#000000" stroke="none">
<path d="M2105 4759 c-322 -30 -645 -163 -849 -350 -79 -72 -152 -179 -176
-257 -20 -65 -28 -202 -12 -202 5 0 14 19 21 43 74 248 335 448 668 511 344
65 670 -2 898 -185 106 -86 367 -346 325 -324 -19 10 -99 46 -177 80 -85 37
-187 92 -255 137 -159 105 -174 113 -263 149 -158 63 -358 85 -540 59 -144
-21 -317 -69 -382 -107 -35 -21 -63 -41 -63 -46 0 -5 14 -28 30 -52 74 -108
249 -205 466 -259 132 -33 216 -44 419 -56 464 -28 768 -120 923 -278 29 -30
51 -56 49 -58 -2 -3 -36 11 -74 30 -136 68 -320 112 -663 161 -102 14 -234 37
-295 50 -60 13 -180 36 -265 50 -205 34 -300 59 -387 101 -87 42 -166 116
-209 197 l-30 57 -39 -55 c-35 -52 -37 -59 -32 -107 22 -179 214 -348 516
-452 176 -61 269 -75 573 -86 163 -5 309 -16 363 -25 305 -55 491 -192 583
-433 17 -42 49 -162 71 -265 30 -138 49 -204 72 -248 38 -71 148 -178 239
-232 71 -43 49 -41 -47 3 -84 39 -167 124 -221 226 -23 45 -69 164 -102 264
-68 203 -83 238 -146 326 -121 171 -282 253 -554 283 -52 6 -178 15 -280 21
-211 12 -291 22 -403 51 -295 75 -524 235 -691 483 -31 46 -34 27 -8 -42 63
-164 275 -346 508 -436 158 -61 320 -88 624 -106 426 -25 571 -65 710 -197 59
-55 140 -158 140 -177 0 -4 -24 22 -53 56 -61 72 -178 156 -262 187 -136 51
-330 71 -670 70 -295 -1 -349 10 -530 115 -248 143 -396 285 -481 459 -22 45
-30 54 -36 40 -24 -63 14 -198 88 -305 74 -109 235 -247 364 -313 19 -10 68
-41 107 -70 40 -29 118 -76 173 -105 162 -83 249 -189 312 -380 38 -116 45
-218 28 -373 -19 -167 -16 -281 9 -346 27 -73 62 -120 114 -155 42 -29 44 -31
39 -75 -5 -60 12 -153 40 -210 29 -62 130 -160 199 -194 116 -58 265 -74 365
-40 132 45 218 219 166 336 -25 57 -96 107 -151 107 -42 0 -54 -7 -70 -37 -17
-33 -13 -39 9 -15 26 27 32 27 55 2 29 -32 25 -108 -8 -159 -32 -48 -111 -96
-173 -106 -135 -20 -242 92 -252 266 -4 70 -3 79 14 85 36 11 115 48 120 56 3
4 -12 1 -33 -6 -70 -24 -103 -27 -103 -10 0 47 47 232 97 385 57 173 57 175
57 299 1 96 -3 137 -17 177 -24 68 -82 156 -142 217 -40 39 -45 47 -25 41 51
-16 160 -75 168 -92 6 -10 15 -52 22 -93 48 -290 148 -556 282 -752 112 -164
214 -239 560 -414 125 -63 244 -128 263 -145 20 -18 48 -53 63 -78 24 -42 27
-55 27 -146 0 -94 -2 -104 -36 -175 -20 -41 -57 -98 -83 -127 -51 -56 -310
-288 -418 -375 -74 -59 -80 -75 -48 -137 44 -87 131 -131 259 -131 83 0 189
24 214 49 4 4 -11 16 -33 26 -135 61 -120 182 47 386 114 138 137 168 171 229
l32 55 82 11 c108 15 180 43 251 100 103 81 155 194 164 363 5 84 9 98 39 142
65 98 79 148 79 304 0 159 -13 215 -74 316 -74 121 -159 188 -366 288 -66 32
-129 65 -139 73 -17 14 -14 16 44 27 80 16 148 42 227 89 75 43 76 54 1 16
-79 -40 -183 -73 -253 -80 -61 -6 -63 -6 -81 22 -15 22 -19 46 -18 109 1 67 7
95 36 170 102 259 63 515 -109 704 -75 83 -211 171 -342 221 -58 22 -126 50
-149 61 -63 29 -143 109 -230 229 -119 167 -172 228 -251 291 -93 76 -268 162
-381 188 -75 18 -272 43 -304 40 -6 -1 -51 -6 -101 -10z m1255 -1003 c107 -89
202 -209 265 -334 53 -107 59 -148 50 -365 -7 -187 -7 -188 -27 -170 -56 51
-90 145 -118 325 -23 151 -42 222 -75 288 -36 69 -141 205 -235 304 l-85 89
80 -41 c44 -23 110 -66 145 -96z m-1070 -846 c129 -88 190 -188 197 -329 6
-105 -11 -206 -72 -421 -24 -85 -46 -171 -50 -190 -14 -74 -13 -73 -46 -53
-17 10 -39 32 -49 48 -53 87 -73 275 -46 441 40 251 1 446 -116 578 l-41 48
84 -42 c46 -24 109 -59 139 -80z m1328 -137 c57 -34 65 -43 81 -89 38 -112
143 -230 261 -293 32 -17 125 -54 207 -82 212 -72 257 -106 315 -234 37 -84
29 -259 -15 -319 -13 -17 -15 -15 -36 25 -29 56 -81 126 -120 163 -20 20 -31
39 -31 58 0 43 -34 123 -77 179 -70 93 -201 176 -384 244 -101 37 -143 67
-197 138 -67 89 -192 326 -192 365 0 5 28 -19 63 -54 34 -35 90 -80 125 -101z
m-811 35 c94 -98 137 -171 216 -363 73 -178 162 -314 265 -406 37 -33 39 -36
12 -18 -299 198 -461 412 -530 702 -21 87 -25 127 -12 127 4 0 26 -19 49 -42z
m554 -353 c41 -69 117 -147 173 -179 49 -29 129 -54 286 -91 121 -28 235 -75
295 -121 19 -15 34 -28 32 -31 -2 -2 -31 3 -63 11 -32 8 -123 24 -201 36 -221
32 -333 80 -440 187 -73 73 -126 175 -172 332 -43 146 -38 156 13 24 24 -62
58 -137 77 -168z m829 -405 c12 -16 19 -30 16 -30 -2 0 -14 14 -26 30 -12 17
-19 30 -16 30 2 0 14 -13 26 -30z m-422 -220 c261 -61 320 -86 396 -170 35
-39 75 -111 76 -136 0 -6 -22 -21 -50 -34 -61 -29 -58 -38 6 -16 26 9 50 16
52 16 3 0 2 -27 -1 -59 -10 -119 -80 -223 -187 -280 -33 -18 -60 -30 -60 -27
0 3 7 31 15 63 40 152 -3 345 -100 452 -40 44 -78 68 -320 200 -82 46 -154 87
-159 92 -6 5 29 -7 77 -27 48 -19 163 -53 255 -74z"/>
<path d="M971 3825 c-107 -161 -158 -313 -148 -445 8 -93 14 -114 90 -275 61
-128 62 -131 62 -216 0 -78 -2 -89 -28 -122 -36 -48 -89 -77 -217 -123 -175
-63 -226 -139 -198 -293 6 -36 13 -57 15 -46 15 93 27 126 59 164 44 51 60 60
200 105 131 43 180 79 214 158 28 65 30 158 6 243 -10 32 -46 118 -79 190
l-62 130 1 130 c0 122 2 136 33 220 18 50 51 125 73 169 21 43 37 80 35 83 -3
2 -28 -30 -56 -72z"/>
<path d="M1013 3784 c-81 -157 -106 -241 -106 -354 0 -152 38 -260 170 -490
68 -119 83 -157 83 -210 0 -72 -52 -108 -222 -153 -53 -14 -117 -36 -142 -48
-70 -33 -140 -100 -166 -161 -20 -46 -22 -64 -17 -153 4 -84 12 -122 51 -240
26 -77 49 -165 52 -196 6 -52 4 -58 -22 -88 -19 -21 -46 -36 -79 -45 l-50 -13
39 -12 c59 -20 139 -10 189 25 90 63 112 175 67 344 -28 106 -30 178 -7 214
27 40 91 82 176 115 113 43 133 46 67 9 -130 -72 -200 -166 -212 -283 -4 -47
0 -81 22 -160 56 -205 42 -276 -71 -346 l-30 -19 73 0 c69 0 72 1 72 24 0 66
22 442 30 515 24 216 159 322 370 290 41 -6 142 -33 225 -61 l149 -50 34 18
c44 24 118 106 134 150 25 70 28 41 14 -134 -4 -43 -3 -43 23 -37 62 15 98 58
113 133 10 52 0 202 -13 202 -5 0 -41 -25 -81 -56 -98 -75 -179 -115 -247
-121 -50 -5 -58 -2 -79 20 -12 13 -25 42 -29 63 -7 46 -25 70 -59 78 -26 7
-47 46 -38 71 4 8 1 15 -5 15 -7 0 -23 11 -36 25 -20 19 -25 34 -25 74 l0 49
-49 17 c-73 24 -75 29 -55 132 9 48 17 117 17 153 1 59 -3 74 -50 165 -61 121
-152 356 -188 485 -15 52 -30 106 -34 119 -6 22 -13 13 -58 -75z m427 -1283
c-13 -26 -57 -59 -99 -77 -59 -25 -57 -15 5 22 32 19 68 44 79 55 25 24 28 24
15 0z"/>
<path d="M1334 1528 c-15 -18 -41 -62 -58 -98 -41 -87 -41 -173 -1 -315 19
-68 28 -124 28 -173 l0 -74 26 6 c109 26 322 4 565 -59 256 -66 420 -150 555
-283 69 -69 86 -81 93 -68 5 9 72 96 150 193 180 227 258 344 258 388 0 86
-241 211 -484 250 -177 29 -392 11 -539 -45 -61 -23 -35 -36 -263 136 -161
122 -246 174 -283 174 -10 0 -32 -15 -47 -32z"/>
</g>
</svg>
